<?xml version="1.0" encoding="UTF-8" standalone="no"?>
<svg
   xmlns:dc="http://purl.org/dc/elements/1.1/"
   xmlns:cc="http://creativecommons.org/ns#"
   xmlns:rdf="http://www.w3.org/1999/02/22-rdf-syntax-ns#"
   xmlns:svg="http://www.w3.org/2000/svg"
   xmlns="http://www.w3.org/2000/svg"
   xmlns:xlink="http://www.w3.org/1999/xlink"
   xmlns:sodipodi="http://sodipodi.sourceforge.net/DTD/sodipodi-0.dtd"
   xmlns:inkscape="http://www.inkscape.org/namespaces/inkscape"
   viewBox="-300 -300 600 600"
   version="1.1"
   id="svg13"
   sodipodi:docname="radioactive-solid.svg"
   inkscape:version="0.92.5 (2060ec1f9f, 2020-04-08)">
  <metadata
     id="metadata19">
    <rdf:RDF>
      <cc:Work
         rdf:about="">
        <dc:format>image/svg+xml</dc:format>
        <dc:type
           rdf:resource="http://purl.org/dc/dcmitype/StillImage" />
        <dc:title></dc:title>
      </cc:Work>
    </rdf:RDF>
  </metadata>
  <defs
     id="defs17" />
  <sodipodi:namedview
     pagecolor="#ffffff"
     bordercolor="#666666"
     borderopacity="1"
     objecttolerance="10"
     gridtolerance="10"
     guidetolerance="10"
     inkscape:pageopacity="0"
     inkscape:pageshadow="2"
     inkscape:window-width="1860"
     inkscape:window-height="1016"
     id="namedview15"
     showgrid="false"
     inkscape:zoom="0.39333333"
     inkscape:cx="-155.08475"
     inkscape:cy="300"
     inkscape:window-x="0"
     inkscape:window-y="27"
     inkscape:window-maximized="1"
     inkscape:current-layer="svg13" />
  <g
     id="g4539">
    <path
       d="m 260.00483,-108.8803 c 58.31766,144.003774 -10.12766,308.25839 -153.21332,367.66797 -143.085667,59.40959 -307.09553,-8.31997 -367.12769,-151.60392 -60.03216,-143.283953 6.44635,-308.3557 148.80657,-369.48773 142.360221,-61.13203 307.17422,4.62354 368.9081,147.17618"
       id="path2"
       inkscape:connector-curvature="0"
       style="opacity:1;fill:#000000;fill-rule:evenodd;stroke:#000000;stroke-width:20.3991375;stroke-linecap:round;stroke-linejoin:round" />
    <path
       d="m 49.16929,-0.064907 a 49.1825,48.6565 0 1 0 -98.365,0 49.1825,48.6565 0 1 0 98.365,0"
       id="path4"
       inkscape:connector-curvature="0"
       style="fill:#f1cd43;stroke-width:0.97837585" />
    <path
       id="a"
       d="M 73.76054,-0.064907 A 73.77375,72.98475 0 0 0 36.873665,-63.271647 L 122.94304,-210.7495 A 245.9125,243.2825 0 0 1 245.89929,-0.05712196 Z"
       inkscape:connector-curvature="0"
       style="fill:#f1cd43;stroke-width:0.97837585" />
    <use
       transform="matrix(-0.5,0.85676339,-0.87538755,-0.5,-0.07663378,-0.08604265)"
       xlink:href="#a"
       id="use7"
       style="fill:#f1cd43"
       x="0"
       y="0"
       width="100%"
       height="100%" />
    <use
       transform="matrix(-0.5,-0.85676339,0.87538755,-0.5,0.03700378,-0.10867835)"
       xlink:href="#a"
       id="use9"
       style="fill:#f1cd43"
       x="0"
       y="0"
       width="100%"
       height="100%" />
  </g>
</svg>
